<?xml version="1.0" encoding="utf-8"?>
<!-- Generator: Adobe Illustrator 16.0.4, SVG Export Plug-In . SVG Version: 6.00 Build 0)  -->
<!DOCTYPE svg PUBLIC "-//W3C//DTD SVG 1.1//EN" "http://www.w3.org/Graphics/SVG/1.1/DTD/svg11.dtd">
<svg version="1.1" id="Layer_1" xmlns="http://www.w3.org/2000/svg" xmlns:xlink="http://www.w3.org/1999/xlink" x="0px" y="0px"
	 width="351.588px" height="235.161px" viewBox="0 0 351.588 235.161" enable-background="new 0 0 351.588 235.161"
	 xml:space="preserve">
<g>
	<text transform="matrix(1 0 0 1 18.3018 189.1499)" fill="#414042" font-family="'Avenir-Black'" font-size="157.4781">S</text>
	<text transform="matrix(1 0 0 1 108.6929 189.1499)" fill="#00A14B" font-family="'Avenir-Black'" font-size="157.4781"> </text>
	<text transform="matrix(1 0 0 1 155.3047 189.1499)" fill="#00A14B" font-family="'Avenir-Medium'" font-size="157.4781">ab</text>
	<g>
		<path fill="#00A14B" d="M142.661,179.513c0,5.325-4.313,9.638-9.635,9.638l0,0c-5.322,0-9.637-4.312-9.637-9.638V66.966
			c0-5.318,2.048-9.637,9.637-9.637l0,0c9.635,0,9.635,4.318,9.635,9.637V179.513z"/>
		<g>
			<g>
				<g>
					<path fill="none" stroke="#414042" stroke-width="5" stroke-miterlimit="10" d="M108.763,35.017c0,0,14.627-4.223,14.627-1.256
						c0,3.339,0,7.344,0,9.285c0,34.66,0,138.633,0,138.633"/>
					<path fill="none" stroke="#414042" stroke-width="5" stroke-miterlimit="10" d="M157.289,35.017c0,0-14.628-4.223-14.628-1.256
						c0,3.339,0,7.344,0,9.285c0,34.66,0,138.633,0,138.633"/>
					<path fill="none" stroke="#414042" stroke-width="5" stroke-miterlimit="10" d="M123.39,43.046c0,39.049,0,32.359,0,138.633"/>
				</g>
				<path fill="none" stroke="#414042" stroke-width="5" stroke-miterlimit="10" d="M123.39,181.679c0,0-0.256,7.184,9.637,7.465
					c6.63,0.192,9.635-5.741,9.635-7.465"/>
			</g>
		</g>
	</g>
</g>
</svg>
