<?xml version="1.0" encoding="utf-8"?>
<!-- Generator: Adobe Illustrator 16.0.4, SVG Export Plug-In . SVG Version: 6.00 Build 0)  -->
<!DOCTYPE svg PUBLIC "-//W3C//DTD SVG 1.1//EN" "http://www.w3.org/Graphics/SVG/1.1/DTD/svg11.dtd">
<svg version="1.1" id="Layer_1" xmlns="http://www.w3.org/2000/svg" xmlns:xlink="http://www.w3.org/1999/xlink" x="0px" y="0px"
	 width="351.588px" height="235.161px" viewBox="0 0 351.588 235.161" enable-background="new 0 0 351.588 235.161"
	 xml:space="preserve">
<g>
	
		<text transform="matrix(1 0 0 1 18.3018 189.1499)" display="none" fill="#414042" enable-background="new    " font-family="'Avenir-Black'" font-size="157.4781">S</text>
	<text transform="matrix(1 0 0 1 108.6929 189.1499)" fill="#00A14B" font-family="'Avenir-Black'" font-size="157.4781"> </text>
	<g enable-background="new    ">
		<path fill="#414042" d="M84.757,104.899c-1.995-2.52-4.7-4.382-8.11-5.59c-3.413-1.206-6.641-1.812-9.685-1.812
			c-1.786,0-3.622,0.212-5.512,0.63c-1.89,0.421-3.676,1.078-5.354,1.969c-1.681,0.893-3.046,2.074-4.095,3.543
			c-1.051,1.472-1.575,3.256-1.575,5.354c0,3.361,1.26,5.933,3.779,7.717c2.52,1.786,5.694,3.307,9.528,4.566
			c3.831,1.26,7.953,2.52,12.362,3.779s8.528,3.046,12.362,5.354c3.832,2.311,7.008,5.408,9.528,9.291
			c2.52,3.886,3.779,9.082,3.779,15.591c0,6.195-1.156,11.602-3.464,16.22c-2.311,4.621-5.433,8.452-9.37,11.496
			c-3.937,3.046-8.504,5.303-13.701,6.771s-10.684,2.205-16.457,2.205c-7.244,0-13.964-1.103-20.157-3.308
			c-6.195-2.204-11.968-5.772-17.322-10.708l17.48-19.213c2.52,3.361,5.694,5.96,9.527,7.796c3.831,1.838,7.795,2.756,11.89,2.756
			c1.993,0,4.016-0.236,6.063-0.709s3.883-1.182,5.512-2.126c1.626-0.945,2.938-2.15,3.937-3.622
			c0.997-1.469,1.496-3.201,1.496-5.197c0-3.358-1.287-6.008-3.858-7.952c-2.574-1.941-5.802-3.595-9.685-4.961
			c-3.885-1.363-8.085-2.729-12.598-4.094c-4.515-1.363-8.715-3.201-12.598-5.512c-3.885-2.309-7.114-5.354-9.685-9.134
			c-2.574-3.779-3.858-8.765-3.858-14.961c0-5.984,1.181-11.232,3.543-15.748c2.362-4.513,5.512-8.292,9.449-11.338
			c3.937-3.044,8.477-5.327,13.622-6.851c5.143-1.521,10.445-2.283,15.905-2.283c6.299,0,12.387,0.894,18.267,2.677
			c5.878,1.787,11.181,4.779,15.906,8.977L84.757,104.899z"/>
	</g>
	
		<text transform="matrix(1 0 0 1 155.3047 189.1499)" display="none" fill="#00A14B" enable-background="new    " font-family="'Avenir-Medium'" font-size="157.4781">ab</text>
	<g enable-background="new    ">
		<path fill="#00A14B" d="M166.328,123.639c3.989-3.674,8.607-6.43,13.858-8.268c5.248-1.836,10.496-2.756,15.748-2.756
			c5.457,0,10.156,0.684,14.094,2.047c3.938,1.366,7.165,3.204,9.686,5.512c2.52,2.311,4.382,4.961,5.59,7.953
			c1.205,2.992,1.811,6.117,1.811,9.37v38.109c0,2.625,0.053,5.039,0.158,7.244c0.104,2.204,0.261,4.306,0.473,6.299h-12.599
			c-0.315-3.779-0.473-7.559-0.473-11.339h-0.315c-3.148,4.831-6.877,8.243-11.18,10.236c-4.307,1.993-9.292,2.992-14.961,2.992
			c-3.465,0-6.771-0.473-9.922-1.417c-3.149-0.945-5.905-2.362-8.267-4.252s-4.227-4.225-5.59-7.008
			c-1.366-2.78-2.047-6.009-2.047-9.685c0-4.828,1.075-8.871,3.229-12.126c2.15-3.253,5.091-5.905,8.819-7.953
			c3.725-2.047,8.083-3.516,13.07-4.409c4.985-0.891,10.314-1.339,15.984-1.339h10.394v-3.149c0-1.89-0.369-3.779-1.103-5.669
			c-0.736-1.89-1.838-3.595-3.307-5.118c-1.472-1.521-3.308-2.729-5.512-3.622c-2.205-0.891-4.83-1.339-7.875-1.339
			c-2.73,0-5.117,0.264-7.164,0.788c-2.048,0.526-3.912,1.181-5.591,1.968c-1.681,0.788-3.204,1.708-4.567,2.756
			c-1.365,1.051-2.677,2.048-3.937,2.992L166.328,123.639z M206.327,153.245c-3.361,0-6.799,0.185-10.314,0.552
			c-3.519,0.369-6.72,1.077-9.605,2.126c-2.889,1.051-5.252,2.52-7.087,4.409c-1.839,1.89-2.756,4.306-2.756,7.244
			c0,4.306,1.442,7.401,4.331,9.291c2.886,1.89,6.795,2.835,11.731,2.835c3.883,0,7.19-0.655,9.921-1.969
			c2.729-1.312,4.934-3.017,6.614-5.118c1.679-2.099,2.886-4.434,3.622-7.008c0.733-2.571,1.103-5.118,1.103-7.638v-4.725H206.327z"
			/>
		<path fill="#00A14B" d="M247.743,70.096h14.174v55.117h0.314c2.52-3.883,6.143-6.953,10.866-9.212
			c4.724-2.257,9.764-3.386,15.118-3.386c5.772,0,10.996,0.999,15.669,2.992c4.67,1.995,8.661,4.751,11.968,8.268
			c3.308,3.519,5.852,7.664,7.639,12.44c1.783,4.778,2.677,9.948,2.677,15.512c0,5.565-0.894,10.708-2.677,15.433
			c-1.787,4.725-4.331,8.873-7.639,12.441c-3.307,3.57-7.298,6.353-11.968,8.346c-4.673,1.993-9.896,2.992-15.669,2.992
			c-5.039,0-9.948-1.103-14.725-3.307c-4.778-2.205-8.531-5.301-11.26-9.292h-0.314v10.709h-14.174V70.096z M286.483,177.811
			c3.779,0,7.189-0.654,10.236-1.968c3.043-1.312,5.615-3.096,7.716-5.354c2.099-2.257,3.726-4.985,4.882-8.188
			c1.154-3.201,1.732-6.693,1.732-10.473s-0.578-7.269-1.732-10.473c-1.156-3.201-2.783-5.93-4.882-8.188
			c-2.101-2.257-4.673-4.04-7.716-5.354c-3.047-1.312-6.457-1.969-10.236-1.969s-7.192,0.657-10.236,1.969
			c-3.046,1.314-5.617,3.098-7.717,5.354c-2.102,2.259-3.728,4.987-4.881,8.188c-1.156,3.204-1.732,6.693-1.732,10.473
			s0.576,7.271,1.732,10.473c1.153,3.203,2.779,5.932,4.881,8.188c2.1,2.259,4.671,4.043,7.717,5.354
			C279.291,177.157,282.704,177.811,286.483,177.811z"/>
	</g>
	<g>
		<path fill="#00A14B" d="M142.661,179.513c0,5.325-4.313,9.638-9.635,9.638l0,0c-5.322,0-9.637-4.312-9.637-9.638V66.966
			c0-5.318,2.048-9.637,9.637-9.637l0,0c9.635,0,9.635,4.318,9.635,9.637V179.513z"/>
		<g>
			<g>
				<g>
					<path fill="none" stroke="#414042" stroke-width="5" stroke-miterlimit="10" d="M108.763,35.017c0,0,14.627-4.223,14.627-1.256
						c0,3.339,0,7.344,0,9.285c0,34.66,0,138.633,0,138.633"/>
					<path fill="none" stroke="#414042" stroke-width="5" stroke-miterlimit="10" d="M157.289,35.017c0,0-14.628-4.223-14.628-1.256
						c0,3.339,0,7.344,0,9.285c0,34.66,0,138.633,0,138.633"/>
					<path fill="none" stroke="#414042" stroke-width="5" stroke-miterlimit="10" d="M123.39,43.046c0,39.049,0,32.359,0,138.633"/>
				</g>
				<path fill="none" stroke="#414042" stroke-width="5" stroke-miterlimit="10" d="M123.39,181.679c0,0-0.256,7.184,9.637,7.465
					c6.63,0.192,9.635-5.741,9.635-7.465"/>
			</g>
		</g>
	</g>
</g>
</svg>
